<svg xmlns="http://www.w3.org/2000/svg" width="24" height="24" viewBox="0 0 24 24" fill="none">
  <!-- Camel silhouette based on the project's camel_markdown icon -->
  <path d="
    M 17.5 4.5
    C 17.5 3.5 18 3 18.8 3
    C 19.4 3 19.8 3.4 19.8 4
    C 19.8 4.3 19.6 4.6 19.3 4.8
    L 18.5 5.2
    L 18.2 6.5
    C 18 7.2 17.5 7.8 17 8.2
    L 16.5 8.5
    L 16.8 10
    C 17 11 17 12 16.5 13
    L 16 14.5
    L 16 17
    L 16 19
    L 15 19
    L 15 16.5
    L 14.5 15
    L 13 14
    L 11 13.5
    L 9.5 14
    L 8.5 15.5
    L 8 17
    L 8 19
    L 7 19
    L 7 16.5
    L 7.5 14.5
    L 7 13
    C 6 12 5.5 11 5.2 9.8
    C 5 9 4.5 8.5 4.5 7.5
    C 4.5 7 5 6.5 5.5 6.5
    C 5.8 6.5 6 6.6 6.2 6.8
    L 7 8
    L 8 8.5
    C 9 8.8 10 9 11 9
    L 13 9
    L 14 8.5
    L 15 7.5
    L 15.5 6
    L 16 5
    Z
  " fill="currentColor"/>
  <!-- Eye -->
  <circle cx="18.8" cy="3.8" r="0.5" fill="currentColor" opacity="0"/>
</svg>
