<svg xmlns="http://www.w3.org/2000/svg"
viewBox="0 0 24 24"
fill="currentColor">
<path d="M12 2a2.5 2.5 0 0 0-1 4.79V9.5a3.5 3.5 0 0 0-3.5 3.5h-.29A2.5 2.5 0 1 0 7.5 15.5h.29A3.5 3.5 0 0 0 11 17.21v.29a2.5 2.5 0 1 0 2 0v-.29A3.5 3.5 0 0 0 16.21 14h.29a2.5 2.5 0 1 0 0-2.5h-.29A3.5 3.5 0 0 0 13 9.5V6.79A2.5 2.5 0 0 0 12 2zM12 4.5a.5.5 0 1 1 0 1 .5.5 0 0 1 0-1zm-5 9a.5.5 0 1 1 0 1 .5.5 0 0 1 0-1zm5 6a.5.5 0 1 1 0 1 .5.5 0 0 1 0-1zm5-6a.5.5 0 1 1 0 1 .5.5 0 0 1 0-1zM12 11.5a1.5 1.5 0 1 1 0 3 1.5 1.5 0 0 1 0-3z"/>
</svg>
